<mxfile host="65bd71144e">
    <diagram id="g3-3vQq80Jack8UoA4WB" name="ページ1">
        <mxGraphModel dx="1130" dy="633" grid="1" gridSize="10" guides="1" tooltips="1" connect="1" arrows="1" fold="1" page="1" pageScale="1" pageWidth="827" pageHeight="1169" background="#F1FAEE" math="0" shadow="0">
            <root>
                <mxCell id="0"/>
                <mxCell id="1" parent="0"/>
                <mxCell id="35" value="keihi-prj&lt;br&gt;project" style="rounded=0;whiteSpace=wrap;html=1;sketch=0;fontColor=#1D3557;strokeColor=#457B9D;fillColor=#CCFFFF;align=left;verticalAlign=top;" vertex="1" parent="1">
                    <mxGeometry x="80" y="40" width="680" height="760" as="geometry"/>
                </mxCell>
                <mxCell id="36" value="keihi" style="rounded=0;whiteSpace=wrap;html=1;sketch=0;fontColor=#1D3557;strokeColor=#457B9D;fillColor=#99FFFF;align=left;verticalAlign=top;" vertex="1" parent="1">
                    <mxGeometry x="120" y="80" width="590" height="120" as="geometry"/>
                </mxCell>
                <mxCell id="2" value="Django" style="whiteSpace=wrap;html=1;fillColor=#A8DADC;strokeColor=#457B9D;fontColor=#1D3557;" parent="1" vertex="1">
                    <mxGeometry x="158" y="910" width="120" height="60" as="geometry"/>
                </mxCell>
                <mxCell id="3" value="Django REST framework" style="whiteSpace=wrap;html=1;fillColor=#A8DADC;strokeColor=#457B9D;fontColor=#1D3557;" parent="1" vertex="1">
                    <mxGeometry x="160" y="840" width="120" height="60" as="geometry"/>
                </mxCell>
                <mxCell id="37" value="keihi-web&lt;br&gt;app" style="rounded=0;whiteSpace=wrap;html=1;sketch=0;fontColor=#1D3557;strokeColor=#457B9D;fillColor=#66FFFF;align=left;verticalAlign=top;" vertex="1" parent="1">
                    <mxGeometry x="120" y="220" width="590" height="240" as="geometry"/>
                </mxCell>
                <mxCell id="38" value="keihi-api&lt;br&gt;app" style="rounded=0;whiteSpace=wrap;html=1;sketch=0;fontColor=#1D3557;strokeColor=#457B9D;fillColor=#66FFFF;align=left;verticalAlign=top;" vertex="1" parent="1">
                    <mxGeometry x="120" y="580" width="590" height="210" as="geometry"/>
                </mxCell>
                <mxCell id="40" value="url.py" style="shape=document;whiteSpace=wrap;html=1;boundedLbl=1;rounded=0;sketch=0;fontColor=#1D3557;strokeColor=#457B9D;fillColor=#A8DADC;align=left;verticalAlign=top;" vertex="1" parent="1">
                    <mxGeometry x="130" y="130" width="50" height="40" as="geometry"/>
                </mxCell>
                <mxCell id="41" value="url.py" style="shape=document;whiteSpace=wrap;html=1;boundedLbl=1;rounded=0;sketch=0;fontColor=#1D3557;strokeColor=#457B9D;fillColor=#A8DADC;align=left;verticalAlign=top;" vertex="1" parent="1">
                    <mxGeometry x="205" y="262" width="50" height="40" as="geometry"/>
                </mxCell>
                <mxCell id="42" value="url.py" style="shape=document;whiteSpace=wrap;html=1;boundedLbl=1;rounded=0;sketch=0;fontColor=#1D3557;strokeColor=#457B9D;fillColor=#A8DADC;align=left;verticalAlign=top;" vertex="1" parent="1">
                    <mxGeometry x="205" y="617" width="50" height="40" as="geometry"/>
                </mxCell>
                <mxCell id="45" value="" style="edgeStyle=elbowEdgeStyle;elbow=horizontal;endArrow=classic;html=1;fontColor=#1D3557;strokeColor=#457B9D;fillColor=#A8DADC;entryX=0;entryY=0.5;entryDx=0;entryDy=0;exitX=1;exitY=0.5;exitDx=0;exitDy=0;" edge="1" parent="1" source="40" target="42">
                    <mxGeometry width="50" height="50" relative="1" as="geometry">
                        <mxPoint x="210" y="420" as="sourcePoint"/>
                        <mxPoint x="430" y="240" as="targetPoint"/>
                    </mxGeometry>
                </mxCell>
                <mxCell id="46" value="" style="edgeStyle=elbowEdgeStyle;elbow=horizontal;endArrow=classic;html=1;fontColor=#1D3557;strokeColor=#457B9D;fillColor=#A8DADC;entryX=0;entryY=0.5;entryDx=0;entryDy=0;exitX=1;exitY=0.5;exitDx=0;exitDy=0;" edge="1" parent="1" source="40" target="41">
                    <mxGeometry width="50" height="50" relative="1" as="geometry">
                        <mxPoint x="190" y="420" as="sourcePoint"/>
                        <mxPoint x="230" y="290" as="targetPoint"/>
                    </mxGeometry>
                </mxCell>
                <mxCell id="50" value="template" style="rounded=0;whiteSpace=wrap;html=1;sketch=0;fontColor=#1D3557;strokeColor=#457B9D;fillColor=#A8DADC;align=left;verticalAlign=top;" vertex="1" parent="1">
                    <mxGeometry x="210" y="480" width="210" height="90" as="geometry"/>
                </mxCell>
                <mxCell id="51" value="models" style="rounded=0;whiteSpace=wrap;html=1;sketch=0;fontColor=#1D3557;strokeColor=#457B9D;fillColor=#A8DADC;align=left;verticalAlign=top;" vertex="1" parent="1">
                    <mxGeometry x="610" y="240" width="80" height="160" as="geometry"/>
                </mxCell>
                <mxCell id="53" value="views" style="rounded=0;whiteSpace=wrap;html=1;sketch=0;fontColor=#1D3557;strokeColor=#457B9D;fillColor=#A8DADC;align=left;verticalAlign=top;" vertex="1" parent="1">
                    <mxGeometry x="280" y="240" width="240" height="80" as="geometry"/>
                </mxCell>
                <mxCell id="54" value="views" style="rounded=0;whiteSpace=wrap;html=1;sketch=0;fontColor=#1D3557;strokeColor=#457B9D;fillColor=#A8DADC;align=left;verticalAlign=top;" vertex="1" parent="1">
                    <mxGeometry x="280" y="600" width="190" height="80" as="geometry"/>
                </mxCell>
                <mxCell id="56" value="" style="edgeStyle=elbowEdgeStyle;elbow=horizontal;endArrow=classic;html=1;fontColor=#1D3557;strokeColor=#457B9D;fillColor=#A8DADC;entryX=0;entryY=0.5;entryDx=0;entryDy=0;exitX=1;exitY=0.5;exitDx=0;exitDy=0;" edge="1" parent="1" source="74" target="51">
                    <mxGeometry width="50" height="50" relative="1" as="geometry">
                        <mxPoint x="190" y="160" as="sourcePoint"/>
                        <mxPoint x="220" y="440" as="targetPoint"/>
                        <Array as="points">
                            <mxPoint x="550" y="470"/>
                        </Array>
                    </mxGeometry>
                </mxCell>
                <mxCell id="57" value="" style="edgeStyle=elbowEdgeStyle;elbow=horizontal;endArrow=classic;html=1;fontColor=#1D3557;strokeColor=#457B9D;fillColor=#A8DADC;exitX=1;exitY=0.5;exitDx=0;exitDy=0;" edge="1" parent="1" source="64">
                    <mxGeometry width="50" height="50" relative="1" as="geometry">
                        <mxPoint x="450" y="430" as="sourcePoint"/>
                        <mxPoint x="610" y="320" as="targetPoint"/>
                        <Array as="points">
                            <mxPoint x="550" y="300"/>
                        </Array>
                    </mxGeometry>
                </mxCell>
                <mxCell id="58" value="" style="edgeStyle=elbowEdgeStyle;elbow=horizontal;endArrow=classic;html=1;fontColor=#1D3557;strokeColor=#457B9D;fillColor=#A8DADC;entryX=0;entryY=0.5;entryDx=0;entryDy=0;exitX=1;exitY=0.5;exitDx=0;exitDy=0;" edge="1" parent="1" source="41" target="64">
                    <mxGeometry width="50" height="50" relative="1" as="geometry">
                        <mxPoint x="450" y="430" as="sourcePoint"/>
                        <mxPoint x="520" y="290" as="targetPoint"/>
                    </mxGeometry>
                </mxCell>
                <mxCell id="59" value="" style="edgeStyle=elbowEdgeStyle;elbow=horizontal;endArrow=classic;html=1;fontColor=#1D3557;strokeColor=#457B9D;fillColor=#A8DADC;entryX=0;entryY=0.5;entryDx=0;entryDy=0;exitX=1;exitY=0.5;exitDx=0;exitDy=0;" edge="1" parent="1" source="42" target="74">
                    <mxGeometry width="50" height="50" relative="1" as="geometry">
                        <mxPoint x="450" y="520" as="sourcePoint"/>
                        <mxPoint x="520" y="380" as="targetPoint"/>
                    </mxGeometry>
                </mxCell>
                <mxCell id="62" value="*.html" style="shape=document;whiteSpace=wrap;html=1;boundedLbl=1;rounded=0;sketch=0;fontColor=#1D3557;strokeColor=#457B9D;fillColor=#A8DADC;align=left;verticalAlign=top;" vertex="1" parent="1">
                    <mxGeometry x="288" y="515" width="50" height="40" as="geometry"/>
                </mxCell>
                <mxCell id="60" value="*.html" style="shape=document;whiteSpace=wrap;html=1;boundedLbl=1;rounded=0;sketch=0;fontColor=#1D3557;strokeColor=#457B9D;fillColor=#A8DADC;align=left;verticalAlign=top;" vertex="1" parent="1">
                    <mxGeometry x="278" y="505" width="50" height="40" as="geometry"/>
                </mxCell>
                <mxCell id="63" value="*.py" style="shape=document;whiteSpace=wrap;html=1;boundedLbl=1;rounded=0;sketch=0;fontColor=#1D3557;strokeColor=#457B9D;fillColor=#A8DADC;align=left;verticalAlign=top;" vertex="1" parent="1">
                    <mxGeometry x="341" y="273" width="50" height="40" as="geometry"/>
                </mxCell>
                <mxCell id="64" value="*.py" style="shape=document;whiteSpace=wrap;html=1;boundedLbl=1;rounded=0;sketch=0;fontColor=#1D3557;strokeColor=#457B9D;fillColor=#A8DADC;align=left;verticalAlign=top;" vertex="1" parent="1">
                    <mxGeometry x="326" y="263" width="50" height="40" as="geometry"/>
                </mxCell>
                <mxCell id="61" value="" style="edgeStyle=elbowEdgeStyle;elbow=horizontal;endArrow=classic;html=1;fontColor=#1D3557;strokeColor=#457B9D;fillColor=#A8DADC;exitX=0.585;exitY=0.988;exitDx=0;exitDy=0;exitPerimeter=0;" edge="1" parent="1" source="64">
                    <mxGeometry width="50" height="50" relative="1" as="geometry">
                        <mxPoint x="351" y="320" as="sourcePoint"/>
                        <mxPoint x="330" y="495" as="targetPoint"/>
                        <Array as="points">
                            <mxPoint x="355" y="400"/>
                        </Array>
                    </mxGeometry>
                </mxCell>
                <mxCell id="65" value="forms" style="rounded=0;whiteSpace=wrap;html=1;sketch=0;fontColor=#1D3557;strokeColor=#457B9D;fillColor=#A8DADC;align=left;verticalAlign=top;" vertex="1" parent="1">
                    <mxGeometry x="360" y="340" width="160" height="80" as="geometry"/>
                </mxCell>
                <mxCell id="66" value="*.py" style="shape=document;whiteSpace=wrap;html=1;boundedLbl=1;rounded=0;sketch=0;fontColor=#1D3557;strokeColor=#457B9D;fillColor=#A8DADC;align=left;verticalAlign=top;" vertex="1" parent="1">
                    <mxGeometry x="429" y="364" width="50" height="40" as="geometry"/>
                </mxCell>
                <mxCell id="67" value="*.py" style="shape=document;whiteSpace=wrap;html=1;boundedLbl=1;rounded=0;sketch=0;fontColor=#1D3557;strokeColor=#457B9D;fillColor=#A8DADC;align=left;verticalAlign=top;" vertex="1" parent="1">
                    <mxGeometry x="414" y="354" width="50" height="40" as="geometry"/>
                </mxCell>
                <mxCell id="68" value="" style="edgeStyle=elbowEdgeStyle;elbow=horizontal;endArrow=classic;html=1;fontColor=#1D3557;strokeColor=#457B9D;fillColor=#A8DADC;exitX=0.52;exitY=0.792;exitDx=0;exitDy=0;exitPerimeter=0;entryX=1;entryY=0.5;entryDx=0;entryDy=0;" edge="1" parent="1" source="67" target="60">
                    <mxGeometry width="50" height="50" relative="1" as="geometry">
                        <mxPoint x="363.7000000000003" y="304.67999999999995" as="sourcePoint"/>
                        <mxPoint x="330" y="500" as="targetPoint"/>
                        <Array as="points">
                            <mxPoint x="440" y="460"/>
                        </Array>
                    </mxGeometry>
                </mxCell>
                <mxCell id="69" value="" style="edgeStyle=elbowEdgeStyle;elbow=horizontal;endArrow=classic;html=1;fontColor=#1D3557;strokeColor=#457B9D;fillColor=#A8DADC;entryX=0.5;entryY=0;entryDx=0;entryDy=0;exitX=1;exitY=0.5;exitDx=0;exitDy=0;" edge="1" parent="1" source="64" target="67">
                    <mxGeometry width="50" height="50" relative="1" as="geometry">
                        <mxPoint x="360" y="300" as="sourcePoint"/>
                        <mxPoint x="325" y="520" as="targetPoint"/>
                        <Array as="points">
                            <mxPoint x="439" y="310"/>
                        </Array>
                    </mxGeometry>
                </mxCell>
                <mxCell id="70" value="serializers" style="rounded=0;whiteSpace=wrap;html=1;sketch=0;fontColor=#1D3557;strokeColor=#457B9D;fillColor=#A8DADC;align=left;verticalAlign=top;" vertex="1" parent="1">
                    <mxGeometry x="360" y="700" width="160" height="80" as="geometry"/>
                </mxCell>
                <mxCell id="71" value="*.py" style="shape=document;whiteSpace=wrap;html=1;boundedLbl=1;rounded=0;sketch=0;fontColor=#1D3557;strokeColor=#457B9D;fillColor=#A8DADC;align=left;verticalAlign=top;" vertex="1" parent="1">
                    <mxGeometry x="430" y="731" width="50" height="40" as="geometry"/>
                </mxCell>
                <mxCell id="72" value="*.py" style="shape=document;whiteSpace=wrap;html=1;boundedLbl=1;rounded=0;sketch=0;fontColor=#1D3557;strokeColor=#457B9D;fillColor=#A8DADC;align=left;verticalAlign=top;" vertex="1" parent="1">
                    <mxGeometry x="415" y="721" width="50" height="40" as="geometry"/>
                </mxCell>
                <mxCell id="73" value="*.py" style="shape=document;whiteSpace=wrap;html=1;boundedLbl=1;rounded=0;sketch=0;fontColor=#1D3557;strokeColor=#457B9D;fillColor=#A8DADC;align=left;verticalAlign=top;" vertex="1" parent="1">
                    <mxGeometry x="348.5" y="626" width="50" height="40" as="geometry"/>
                </mxCell>
                <mxCell id="74" value="*.py" style="shape=document;whiteSpace=wrap;html=1;boundedLbl=1;rounded=0;sketch=0;fontColor=#1D3557;strokeColor=#457B9D;fillColor=#A8DADC;align=left;verticalAlign=top;" vertex="1" parent="1">
                    <mxGeometry x="333.5" y="616" width="50" height="40" as="geometry"/>
                </mxCell>
                <mxCell id="75" value="" style="edgeStyle=elbowEdgeStyle;elbow=horizontal;endArrow=classic;html=1;fontColor=#1D3557;strokeColor=#457B9D;fillColor=#A8DADC;entryX=0.5;entryY=0;entryDx=0;entryDy=0;" edge="1" parent="1" source="74" target="72">
                    <mxGeometry width="50" height="50" relative="1" as="geometry">
                        <mxPoint x="265" y="647" as="sourcePoint"/>
                        <mxPoint x="343.5" y="646" as="targetPoint"/>
                        <Array as="points">
                            <mxPoint x="440" y="680"/>
                        </Array>
                    </mxGeometry>
                </mxCell>
                <mxCell id="76" value="Python" style="whiteSpace=wrap;html=1;fillColor=#A8DADC;strokeColor=#457B9D;fontColor=#1D3557;" vertex="1" parent="1">
                    <mxGeometry x="160" y="980" width="420" height="60" as="geometry"/>
                </mxCell>
                <mxCell id="77" value="setting.py" style="shape=document;whiteSpace=wrap;html=1;boundedLbl=1;rounded=0;sketch=0;fontColor=#1D3557;strokeColor=#457B9D;fillColor=#A8DADC;align=left;verticalAlign=top;" vertex="1" parent="1">
                    <mxGeometry x="230" y="120" width="60" height="40" as="geometry"/>
                </mxCell>
                <mxCell id="78" value="middleware.py" style="shape=document;whiteSpace=wrap;html=1;boundedLbl=1;rounded=0;sketch=0;fontColor=#1D3557;strokeColor=#457B9D;fillColor=#A8DADC;align=left;verticalAlign=top;" vertex="1" parent="1">
                    <mxGeometry x="220" y="394" width="90" height="40" as="geometry"/>
                </mxCell>
            </root>
        </mxGraphModel>
    </diagram>
</mxfile>